# xmcd
#
# Track frame offsets: 
#        183
#        14373
#        26430
#        47028
#        65158
#        77123
#        97073
#        109295
#        126823
#        145413
#        163848
#        177178
#        194350
#        211728
#        233678
#        248538
#        270378
#        287028
#        300683
#        322128
#
# Disc length: 4496 seconds
#
# Revision: 2
# Processed by: cddbd v1.4PL0 Copyright (c) Steve Scherf et al.
# Submitted via: ExactAudioCopy v0.90b3
#
DISCID=21118e14
DTITLE=José Feliciano - The Best Of José Feliciano
DYEAR=1995
DGENRE=Blues
TTITLE0=Light My Fire
TTITLE1=Rain
TTITLE2=Hi-Heel Sneakers
TTITLE3=California Dreaming
TTITLE4=Peago
TTITLE5=Right Here Waiting
TTITLE6=Mule Skinner Blues
TTITLE7=Daniel
TTITLE8=You Send Me
TTITLE9=Que Sera
TTITLE10=La Bamba
TTITLE11=Samba Pa Ti
TTITLE12=The Last Time
TTITLE13=Affirmation
TTITLE14=Time After Time
TTITLE15=Jealous Guy
TTITLE16=Angela
TTITLE17=Chico and The Man
TTITLE18=Stay With Me
TTITLE19=In My Life
EXTD=
EXTT0=
EXTT1=
EXTT2=
EXTT3=
EXTT4=
EXTT5=
EXTT6=
EXTT7=
EXTT8=
EXTT9=
EXTT10=
EXTT11=
EXTT12=
EXTT13=
EXTT14=
EXTT15=
EXTT16=
EXTT17=
EXTT18=
EXTT19=
PLAYORDER=
